HIERARCHY
ROOT Hips
{
	OFFSET 0.000000 71.427986 0.000000
	CHANNELS 6 Xposition Yposition Zposition Xrotation Yrotation Zrotation
	JOINT Pelvis
	{
		OFFSET 0.000000 0.000000 0.000000
		CHANNELS 3 Xrotation Yrotation Zrotation
		JOINT LeftUpLeg
		{
			OFFSET 6.797100 -2.508499 -1.318700
			CHANNELS 3 Xrotation Yrotation Zrotation
			JOINT LeftLeg
			{
				OFFSET 0.069008 -29.241863 0.690200
				CHANNELS 3 Xrotation Yrotation Zrotation
				JOINT LeftFoot
				{
					OFFSET -0.069008 -29.568123 -0.266800
					CHANNELS 3 Xrotation Yrotation Zrotation
					JOINT LeftToeBase
					{
						OFFSET 3.145500 -8.631000 16.059900
						CHANNELS 3 Xrotation Yrotation Zrotation
						End Site
						{
							OFFSET 0.000000 18.501587 0.000000
						}
					}
				}
			}
			JOINT Left_ShortSleeve
			{
				OFFSET 0.265923 -10.480953 1.153800
				CHANNELS 3 Xrotation Yrotation Zrotation
				End Site
				{
					OFFSET 1.725763 19.823879 0.000000
				}
			}
		}
		JOINT RightUpLeg
		{
			OFFSET -6.797100 -2.508499 -1.318700
			CHANNELS 3 Xrotation Yrotation Zrotation
			JOINT RightLeg
			{
				OFFSET -0.082453 -29.241932 0.688000
				CHANNELS 3 Xrotation Yrotation Zrotation
				JOINT RightFoot
				{
					OFFSET 0.082453 -29.568058 -0.264600
					CHANNELS 3 Xrotation Yrotation Zrotation
					JOINT RightToeBase
					{
						OFFSET -3.115300 -8.682800 16.113400
						CHANNELS 3 Xrotation Yrotation Zrotation
						End Site
						{
							OFFSET 0.000000 18.567114 0.000000
						}
					}
				}
			}
			JOINT Right_ShortSleeve
			{
				OFFSET -0.265923 -10.480953 1.153800
				CHANNELS 3 Xrotation Yrotation Zrotation
				End Site
				{
					OFFSET -1.725766 19.823910 0.000000
				}
			}
		}
	}
	JOINT Spine
	{
		OFFSET 0.000000 13.368103 0.470500
		CHANNELS 3 Xrotation Yrotation Zrotation
		JOINT Spine1
		{
			OFFSET 0.147000 13.837402 0.538800
			CHANNELS 3 Xrotation Yrotation Zrotation
			JOINT Spine2
			{
				OFFSET 0.168000 16.242897 -1.435500
				CHANNELS 3 Xrotation Yrotation Zrotation
				JOINT Neck
				{
					OFFSET 0.217200 18.631500 -1.679100
					CHANNELS 3 Xrotation Yrotation Zrotation
					JOINT Head
					{
						OFFSET 0.000000 6.599396 1.385900
						CHANNELS 3 Xrotation Yrotation Zrotation
						JOINT Hat
						{
							OFFSET -0.532200 27.220596 -10.096100
							CHANNELS 3 Xrotation Yrotation Zrotation
							End Site
							{
								OFFSET 0.000000 22.029861 0.000000
							}
						}
						JOINT HairD
						{
							OFFSET -10.777400 17.437393 -1.325900
							CHANNELS 3 Xrotation Yrotation Zrotation
							JOINT HairD1
							{
								OFFSET -3.290299 -11.051193 1.062200
								CHANNELS 3 Xrotation Yrotation Zrotation
								End Site
								{
									OFFSET 0.000000 11.579437 0.000000
								}
							}
						}
						JOINT HairB
						{
							OFFSET -10.777400 17.437393 1.467900
							CHANNELS 3 Xrotation Yrotation Zrotation
							JOINT HairB1
							{
								OFFSET -1.561200 -12.956299 3.590200
								CHANNELS 3 Xrotation Yrotation Zrotation
								End Site
								{
									OFFSET 0.000000 13.534866 0.000000
								}
							}
						}
						JOINT HairA
						{
							OFFSET 9.713100 17.437393 1.467900
							CHANNELS 3 Xrotation Yrotation Zrotation
							JOINT HairA1
							{
								OFFSET 1.561200 -12.956299 3.590200
								CHANNELS 3 Xrotation Yrotation Zrotation
								End Site
								{
									OFFSET 0.000000 13.534866 0.000000
								}
							}
						}
						JOINT HairC
						{
							OFFSET 9.713100 17.437393 -1.325900
							CHANNELS 3 Xrotation Yrotation Zrotation
							JOINT HairC1
							{
								OFFSET 3.290300 -11.051193 1.062200
								CHANNELS 3 Xrotation Yrotation Zrotation
								End Site
								{
									OFFSET 0.000000 11.579437 0.000000
								}
							}
						}
					}
				}
				JOINT LeftShoulder
				{
					OFFSET 5.101800 15.108002 -2.763700
					CHANNELS 3 Xrotation Yrotation Zrotation
					JOINT LeftArm
					{
						OFFSET 9.825497 2.506317 -1.597400
						CHANNELS 3 Xrotation Yrotation Zrotation
						JOINT LeftForeArm
						{
							OFFSET 21.966244 0.000000 0.000000
							CHANNELS 3 Xrotation Yrotation Zrotation
							JOINT LeftHand
							{
								OFFSET 33.879036 0.000000 0.000000
								CHANNELS 3 Xrotation Yrotation Zrotation
								JOINT LeftHandThumb1
								{
									OFFSET 6.715286 -2.359680 3.363841
									CHANNELS 3 Xrotation Yrotation Zrotation
									JOINT LeftHandThumb2
									{
										OFFSET 2.507072 -1.447464 1.447461
										CHANNELS 3 Xrotation Yrotation Zrotation
										JOINT LeftHandThumb3
										{
											OFFSET 2.898338 -1.673355 1.673357
											CHANNELS 3 Xrotation Yrotation Zrotation
											End Site
											{
												OFFSET -0.295959 3.727692 -0.131651
											}
										}
									}
								}
								JOINT LeftHandIndex1
								{
									OFFSET 14.190811 -0.254547 3.840278
									CHANNELS 3 Xrotation Yrotation Zrotation
									JOINT LeftHandIndex2
									{
										OFFSET 3.551727 0.000000 -0.000000
										CHANNELS 3 Xrotation Yrotation Zrotation
										JOINT LeftHandIndex3
										{
											OFFSET 2.894196 0.000000 0.000000
											CHANNELS 3 Xrotation Yrotation Zrotation
											End Site
											{
												OFFSET -1.000603 2.690872 0.366626
											}
										}
									}
								}
								JOINT LeftHandMiddle1
								{
									OFFSET 13.776489 0.000000 0.000000
									CHANNELS 3 Xrotation Yrotation Zrotation
									JOINT LeftHandMiddle2
									{
										OFFSET 3.438232 0.000000 0.000000
										CHANNELS 3 Xrotation Yrotation Zrotation
										JOINT LeftHandMiddle3
										{
											OFFSET 3.691551 0.000000 0.000000
											CHANNELS 3 Xrotation Yrotation Zrotation
											End Site
											{
												OFFSET -1.082298 3.499527 0.457670
											}
										}
									}
								}
								JOINT LeftHandRing1
								{
									OFFSET 13.966164 -0.268127 -3.067488
									CHANNELS 3 Xrotation Yrotation Zrotation
									JOINT LeftHandRing2
									{
										OFFSET 3.162567 0.000000 0.000000
										CHANNELS 3 Xrotation Yrotation Zrotation
										JOINT LeftHandRing3
										{
											OFFSET 3.324348 0.000000 0.000000
											CHANNELS 3 Xrotation Yrotation Zrotation
											End Site
											{
												OFFSET -0.861900 3.184998 0.405154
											}
										}
									}
								}
								JOINT LeftHandPinky1
								{
									OFFSET 13.131393 -0.168503 -5.746925
									CHANNELS 3 Xrotation Yrotation Zrotation
									JOINT LeftHandPinky2
									{
										OFFSET 2.849182 0.000000 0.000000
										CHANNELS 3 Xrotation Yrotation Zrotation
										JOINT LeftHandPinky3
										{
											OFFSET 2.805038 0.000000 0.000000
											CHANNELS 3 Xrotation Yrotation Zrotation
											End Site
											{
												OFFSET -0.882500 2.642609 0.325652
											}
										}
									}
								}
							}
							JOINT Left_Sleeve
							{
								OFFSET 6.592125 -0.646545 0.805568
								CHANNELS 3 Xrotation Yrotation Zrotation
								End Site
								{
									OFFSET -0.000179 20.275787 -0.000000
								}
							}
						}
					}
				}
				JOINT RightShoulder
				{
					OFFSET -5.731700 15.108002 -2.763700
					CHANNELS 3 Xrotation Yrotation Zrotation
					JOINT RightArm
					{
						OFFSET -9.825497 2.506317 -1.597400
						CHANNELS 3 Xrotation Yrotation Zrotation
						JOINT RightForeArm
						{
							OFFSET -21.966242 0.000000 0.000000
							CHANNELS 3 Xrotation Yrotation Zrotation
							JOINT RightHand
							{
								OFFSET -33.879032 0.000000 0.000000
								CHANNELS 3 Xrotation Yrotation Zrotation
								JOINT RightHandThumb1
								{
									OFFSET -6.715286 -2.359680 3.363841
									CHANNELS 3 Xrotation Yrotation Zrotation
									JOINT RightHandThumb2
									{
										OFFSET -2.507072 -1.447464 1.447461
										CHANNELS 3 Xrotation Yrotation Zrotation
										JOINT RightHandThumb3
										{
											OFFSET -2.898338 -1.673355 1.673357
											CHANNELS 3 Xrotation Yrotation Zrotation
											End Site
											{
												OFFSET 0.295959 3.727692 -0.131651
											}
										}
									}
								}
								JOINT RightHandIndex1
								{
									OFFSET -14.190811 -0.254547 3.840278
									CHANNELS 3 Xrotation Yrotation Zrotation
									JOINT RightHandIndex2
									{
										OFFSET -3.551727 0.000000 -0.000000
										CHANNELS 3 Xrotation Yrotation Zrotation
										JOINT RightHandIndex3
										{
											OFFSET -2.894196 0.000000 0.000000
											CHANNELS 3 Xrotation Yrotation Zrotation
											End Site
											{
												OFFSET 1.000603 2.690872 0.366626
											}
										}
									}
								}
								JOINT RightHandMiddle1
								{
									OFFSET -13.776489 0.000000 0.000000
									CHANNELS 3 Xrotation Yrotation Zrotation
									JOINT RightHandMiddle2
									{
										OFFSET -3.438232 0.000000 0.000000
										CHANNELS 3 Xrotation Yrotation Zrotation
										JOINT RightHandMiddle3
										{
											OFFSET -3.691551 0.000000 0.000000
											CHANNELS 3 Xrotation Yrotation Zrotation
											End Site
											{
												OFFSET 1.082298 3.499527 0.457670
											}
										}
									}
								}
								JOINT RightHandRing1
								{
									OFFSET -13.966164 -0.268127 -3.067488
									CHANNELS 3 Xrotation Yrotation Zrotation
									JOINT RightHandRing2
									{
										OFFSET -3.162567 0.000000 0.000000
										CHANNELS 3 Xrotation Yrotation Zrotation
										JOINT RightHandRing3
										{
											OFFSET -3.324348 0.000000 0.000000
											CHANNELS 3 Xrotation Yrotation Zrotation
											End Site
											{
												OFFSET 0.861900 3.184998 0.405154
											}
										}
									}
								}
								JOINT RightHandPinky1
								{
									OFFSET -13.131393 -0.168503 -5.746925
									CHANNELS 3 Xrotation Yrotation Zrotation
									JOINT RightHandPinky2
									{
										OFFSET -2.849182 0.000000 0.000000
										CHANNELS 3 Xrotation Yrotation Zrotation
										JOINT RightHandPinky3
										{
											OFFSET -2.805038 0.000000 0.000000
											CHANNELS 3 Xrotation Yrotation Zrotation
											End Site
											{
												OFFSET 0.882500 2.642609 0.325652
											}
										}
									}
								}
							}
							JOINT Right_Sleeve
							{
								OFFSET -6.592125 -0.646545 0.805568
								CHANNELS 3 Xrotation Yrotation Zrotation
								End Site
								{
									OFFSET 0.000179 20.275787 -0.000000
								}
							}
						}
					}
				}
				JOINT Bind_Right_JacketString
				{
					OFFSET -3.534800 11.969597 7.200700
					CHANNELS 3 Xrotation Yrotation Zrotation
					JOINT Bind_Right_JacketString1
					{
						OFFSET -0.319900 -6.102600 2.794100
						CHANNELS 3 Xrotation Yrotation Zrotation
						End Site
						{
							OFFSET 0.000000 6.719452 0.000000
						}
					}
				}
				JOINT Bind_Left_JacketString
				{
					OFFSET 2.904800 11.969597 7.200700
					CHANNELS 3 Xrotation Yrotation Zrotation
					JOINT Bind_Left_JacketString1
					{
						OFFSET 0.364800 -5.904503 3.186800
						CHANNELS 3 Xrotation Yrotation Zrotation
						End Site
						{
							OFFSET 0.000000 6.719513 0.000000
						}
					}
				}
				JOINT HairE
				{
					OFFSET 5.915200 17.612701 -11.592200
					CHANNELS 3 Xrotation Yrotation Zrotation
					JOINT HairE1
					{
						OFFSET 0.289200 -7.171898 -1.284500
						CHANNELS 3 Xrotation Yrotation Zrotation
						End Site
						{
							OFFSET 0.000000 7.291756 0.000000
						}
					}
				}
				JOINT HairF
				{
					OFFSET -0.864800 17.612701 -11.592200
					CHANNELS 3 Xrotation Yrotation Zrotation
					JOINT HairF1
					{
						OFFSET 0.000000 -14.087097 -2.127501
						CHANNELS 3 Xrotation Yrotation Zrotation
						End Site
						{
							OFFSET 0.000000 14.246841 0.000000
						}
					}
				}
				JOINT HairG
				{
					OFFSET -8.087700 17.612701 -11.592200
					CHANNELS 3 Xrotation Yrotation Zrotation
					JOINT HairG1
					{
						OFFSET -0.293600 -6.081398 -0.910100
						CHANNELS 3 Xrotation Yrotation Zrotation
						End Site
						{
							OFFSET 0.000000 6.156120 0.000000
						}
					}
				}
			}
		}
	}
	JOINT Pouch
	{
		OFFSET 0.000000 4.394501 10.847300
		CHANNELS 3 Xrotation Yrotation Zrotation
		End Site
		{
			OFFSET 0.000000 21.880577 0.000000
		}
	}
	JOINT Bag
	{
		OFFSET -13.229000 4.813004 -0.593300
		CHANNELS 3 Xrotation Yrotation Zrotation
		End Site
		{
			OFFSET 0.000000 21.880577 0.000000
		}
	}
	JOINT OccupyGuyFacialAnim_Joint
	{
		OFFSET 1.000000 -70.206398 -1.655000
		CHANNELS 3 Xrotation Yrotation Zrotation
		End Site
		{
			OFFSET 0.000000 21.880577 0.000000
		}
	}
}
MOTION
Frames: 4
Frame Time: 0.033333
77.358849 39.052177 216.785736 166.979629 10.597336 -21.870344 -0.000000 0.000001 -0.000001 -71.268537 -4.244305 3.392729 3.275728 6.506299 2.965578 24.624391 -2.315365 -14.062554 -0.000001 -0.000001 0.000002 -0.000000 0.000003 0.000000 -42.480218 -4.539878 -26.557365 14.957672 -8.543259 -5.096868 4.546407 -1.673232 8.515411 0.000003 0.000001 -0.000000 -0.000001 0.000001 -0.000003 24.499532 11.168350 -10.155450 9.475500 5.508483 -2.584948 9.445807 5.435360 -2.804425 11.763188 -1.037106 2.711449 21.164439 6.708019 -2.101343 0.000002 0.000000 0.000000 0.000002 0.000000 0.000000 0.000002 0.000000 0.000001 0.000002 0.000000 0.000002 0.000001 0.000000 0.000002 0.000002 0.000000 0.000002 0.000001 0.000000 0.000002 0.000002 0.000000 0.000000 0.000002 0.000000 0.000000 1.165811 -10.236014 -1.323866 15.029363 8.718332 -53.951804 -0.000013 -28.670136 -0.000019 3.831611 -3.986423 -16.609582 -0.849715 6.589388 -5.722341 14.079856 15.185852 18.162979 0.000001 -0.000001 -0.000001 9.734642 5.829232 -89.829234 3.986725 5.547057 -71.389752 0.000000 0.000000 -0.000000 4.811989 8.094659 -79.773994 4.581273 5.712075 -77.444974 0.000000 0.000001 -0.000001 2.772164 7.655001 -77.658786 5.855315 5.851073 -90.041694 -0.000001 -0.000001 -0.000001 7.388844 13.664621 -77.824002 4.340977 5.653500 -75.018495 0.000001 -0.000002 0.000003 0.000000 0.000000 -0.000000 9.768818 30.363814 -18.351182 -45.222829 8.719697 6.940398 -0.000018 83.307107 0.000028 4.249031 5.680415 -19.426848 -5.107918 0.401982 -6.119896 7.166515 1.449858 5.948790 -0.000000 0.000001 0.000001 1.028629 8.009915 -1.789192 0.047632 -0.665070 8.192439 0.000000 0.000001 -0.000003 0.157438 -4.041352 3.848471 0.042892 -0.631270 7.773257 0.000002 0.000001 0.000001 0.775169 -10.397430 4.952736 0.062192 -0.759351 9.363668 0.000001 0.000002 -0.000001 -2.333895 -28.791061 8.493413 0.045888 -0.652871 8.040965 -0.000001 0.000004 -0.000001 -0.000000 -0.000002 -0.000002 -0.000001 0.000002 0.000002 0.000001 0.000000 0.000001 -0.000001 0.000002 0.000001 -0.000001 0.000002 0.000001 -0.000001 0.000002 0.000002 0.000001 0.000000 0.000001 -0.000001 0.000002 0.000001 -0.000001 0.000002 0.000001 -0.000001 0.000002 0.000002 0.000001 0.000000 0.000001 -0.000000 0.000001 -0.000001 -0.000000 0.000001 -0.000001 -0.000000 0.000001 -0.000001 
76.907784 34.656822 224.552353 181.201107 11.129642 -25.556840 0.000001 0.000001 0.000001 -75.091803 -4.203762 3.061414 0.549744 8.195255 2.380548 26.060590 -2.810058 -15.530447 0.000001 0.000002 -0.000001 -0.000000 0.000001 -0.000000 -45.319961 -6.053773 -29.288906 1.626728 -8.520705 -3.579458 7.834493 0.476010 10.591870 -0.000001 0.000001 0.000001 -0.000002 -0.000001 -0.000001 25.007822 11.639174 -9.187071 9.281950 5.658730 -2.211148 9.260720 5.589539 -2.434315 11.537754 -1.187987 3.122062 20.435141 5.569816 -0.125872 0.000001 0.000001 0.000001 0.000001 0.000001 0.000001 0.000001 0.000001 0.000002 0.000001 0.000001 0.000003 0.000001 0.000000 -0.000000 0.000001 0.000001 0.000003 0.000001 0.000000 -0.000000 0.000001 0.000001 0.000001 0.000001 0.000001 0.000001 0.907317 -11.118175 -0.380454 10.323403 22.081925 -44.866819 0.000010 -47.472516 0.000004 -11.681478 -10.402500 -11.903649 -0.829798 6.612867 -5.819289 14.108735 15.395573 18.328992 -0.000001 0.000001 -0.000001 9.879711 5.759448 -90.517007 4.037365 5.563779 -71.912869 0.000001 -0.000000 -0.000000 4.860677 8.103907 -80.339376 4.640568 5.724899 -78.039952 0.000001 0.000001 -0.000003 2.759088 7.671338 -78.193727 5.927867 5.850573 -90.753413 -0.000000 -0.000002 -0.000002 7.335974 13.618572 -78.310229 4.396935 5.668108 -75.585810 -0.000001 -0.000000 -0.000001 0.000000 0.000000 -0.000000 11.717572 26.491575 -25.527938 -53.922479 0.197368 3.977380 -0.000083 82.497839 0.000094 1.646461 10.736282 -17.809606 -4.743359 -0.386090 -6.249715 7.005653 1.466190 5.636581 0.000000 -0.000001 0.000000 0.857012 7.865378 -1.904788 0.042523 -0.628567 7.739909 -0.000001 -0.000000 0.000002 0.145158 -3.973581 3.536012 0.038574 -0.598802 7.371247 0.000001 0.000001 -0.000001 0.698097 -10.089611 4.588640 0.055738 -0.719157 8.863809 0.000001 -0.000000 -0.000002 -1.887130 -28.678906 8.311330 0.040927 -0.616696 7.592976 -0.000000 0.000004 -0.000001 0.000000 0.000001 0.000000 0.000001 0.000001 -0.000000 -0.000000 0.000000 -0.000000 0.000001 0.000001 -0.000001 0.000001 0.000001 -0.000001 0.000001 0.000001 -0.000000 -0.000000 0.000000 -0.000000 0.000001 0.000001 -0.000001 0.000001 0.000001 -0.000001 0.000001 0.000001 -0.000000 -0.000000 0.000000 -0.000000 0.000001 0.000001 0.000001 0.000001 0.000001 0.000001 0.000001 0.000001 0.000001 
76.199135 29.991348 231.987488 197.965233 10.429906 -30.544182 -0.000000 0.000000 0.000000 -84.721229 -4.755917 2.284853 4.727405 8.715437 1.831235 25.296521 -3.384395 -18.469474 -0.000002 -0.000000 0.000002 0.000002 0.000003 0.000000 -56.061855 -1.975386 -34.113793 5.799200 -9.479384 -2.849887 3.282246 -0.502818 11.750784 -0.000003 -0.000003 0.000004 0.000004 -0.000000 -0.000003 24.002781 10.759201 -8.015415 8.362497 5.249367 -2.065996 8.343926 5.196495 -2.262421 10.810581 -1.196082 3.657936 18.209481 7.547322 1.174558 -0.000001 0.000000 0.000000 -0.000001 0.000000 0.000000 -0.000001 0.000000 0.000001 -0.000001 0.000000 0.000000 -0.000000 0.000000 0.000000 -0.000001 0.000000 0.000000 -0.000000 0.000000 0.000000 -0.000001 0.000000 0.000000 -0.000001 0.000000 0.000000 -0.065627 -11.692914 -0.074606 -3.166637 38.606053 -28.912942 -0.000013 -55.010026 -0.000025 -30.710282 -13.979529 -6.777756 -0.702730 6.760827 -6.429131 13.900622 16.162618 19.430867 0.000002 0.000001 -0.000001 10.767434 5.295423 -94.828605 4.328390 5.650111 -74.890811 -0.000000 0.000001 -0.000003 5.168641 8.152671 -83.896682 4.968432 5.784334 -81.308983 0.000001 -0.000000 0.000001 2.678314 7.788522 -81.558797 6.317746 5.832493 -94.582773 0.000001 0.000001 0.000000 6.989758 13.364008 -81.368344 4.710460 5.739199 -78.739759 -0.000001 0.000001 0.000005 0.000000 -0.000001 -0.000001 10.494325 20.205653 -29.777770 -63.441666 -6.277736 -1.717510 -0.000031 79.540866 0.000031 -7.852815 15.444656 -17.920036 -4.344082 -1.068998 -6.324887 6.798189 1.478156 5.190567 0.000000 -0.000001 -0.000000 0.591608 7.671992 -1.237102 0.045943 -0.653264 8.046050 0.000001 0.000000 0.000002 0.150499 -3.893198 3.999696 0.042747 -0.630241 7.760476 0.000001 0.000004 -0.000000 0.723476 -9.738473 5.052363 0.058441 -0.736269 9.076507 0.000001 -0.000001 -0.000000 -1.123368 -28.452485 9.041282 0.044414 -0.642359 7.910690 -0.000001 0.000001 0.000001 -0.000000 -0.000001 0.000001 0.000000 0.000000 0.000001 0.000002 0.000000 0.000001 0.000000 0.000000 0.000001 0.000000 0.000000 0.000001 0.000000 0.000000 0.000001 0.000002 0.000000 0.000001 0.000000 0.000000 0.000001 0.000000 0.000000 0.000001 0.000000 0.000000 0.000001 0.000002 0.000000 0.000001 -0.000000 0.000000 0.000000 -0.000000 0.000000 0.000000 -0.000000 0.000000 0.000000 
75.428047 24.968380 238.766632 214.947651 7.864798 -34.873607 -0.000001 0.000001 -0.000001 -90.312661 -5.220976 2.789090 4.103791 8.706316 1.425421 25.542795 -3.524910 -19.882220 -0.000002 0.000001 -0.000001 0.000003 0.000001 -0.000000 -62.680769 0.655404 -39.499083 4.920044 -9.859882 -3.036849 1.170268 -2.480013 10.888367 0.000002 -0.000001 -0.000000 -0.000002 0.000002 -0.000004 20.997907 8.550774 -6.741694 6.729405 4.229758 -2.061971 6.710859 4.199885 -2.202919 10.095597 -0.952957 3.819286 15.482514 12.188937 0.955501 -0.000000 0.000000 0.000001 -0.000000 0.000000 0.000001 -0.000000 0.000000 0.000002 -0.000000 0.000000 0.000001 0.000001 0.000000 0.000001 -0.000000 0.000000 0.000001 0.000001 0.000000 0.000001 -0.000000 0.000000 0.000001 -0.000000 0.000000 0.000001 -1.639862 -12.114532 -0.154891 -23.147882 44.084957 -5.458126 -0.000013 -43.364782 0.000003 -52.820756 -9.721626 0.658035 -0.764570 6.689251 -6.132726 13.929527 15.502723 18.909727 -0.000001 0.000002 -0.000002 10.340549 5.547404 -92.730657 4.170272 5.605240 -73.278531 0.000001 -0.000003 -0.000001 5.018603 8.131548 -82.168357 4.783619 5.753195 -79.470521 0.000000 -0.000003 0.000000 2.716405 7.732535 -79.923780 6.093998 5.846043 -92.383650 -0.000002 0.000003 -0.000002 7.158991 13.488668 -79.882867 4.535835 5.701851 -76.988035 -0.000000 0.000001 -0.000000 -0.000000 -0.000002 0.000002 8.875903 15.612096 -32.027618 -70.259164 -8.780484 -7.142466 -0.000022 72.787332 0.000017 -21.316011 16.742448 -19.532826 -3.877204 -1.633236 -6.329582 6.530751 1.442773 4.533506 0.000000 0.000000 0.000002 0.195016 7.391035 0.544343 0.062913 -0.763714 9.417995 -0.000001 0.000001 0.000000 0.173515 -3.791876 5.559612 0.060876 -0.751358 9.264236 0.000001 0.000001 -0.000002 0.868303 -9.311204 6.680735 0.075028 -0.833468 10.287083 0.000001 -0.000001 -0.000001 0.017991 -27.712816 11.047715 0.061408 -0.754592 9.304621 -0.000000 0.000001 -0.000001 0.000002 0.000001 -0.000002 -0.000001 -0.000000 0.000001 0.000000 -0.000000 0.000001 -0.000001 -0.000000 0.000003 -0.000001 -0.000000 0.000003 -0.000001 -0.000000 0.000001 0.000000 -0.000000 0.000001 -0.000001 -0.000000 0.000003 -0.000001 -0.000000 0.000003 -0.000001 -0.000000 0.000001 0.000000 -0.000000 0.000001 -0.000001 0.000001 -0.000001 -0.000001 0.000001 -0.000001 -0.000001 0.000001 -0.000001 
